<svg width="232" height="60" viewBox="0 0 232 60" fill="none" xmlns="http://www.w3.org/2000/svg">
<g clip-path="url(#clip0_926_2684)">
<mask id="mask0_926_2684" style="mask-type:luminance" maskUnits="userSpaceOnUse" x="0" y="0" width="232" height="60">
<path d="M231.791 0H0V60H231.791V0Z" fill="white"/>
</mask>
<g mask="url(#mask0_926_2684)">
<path d="M68.7165 33.7659C68.4626 33.8505 68.1241 33.9351 67.7856 34.0198C67.4471 34.1044 67.1086 34.1044 66.7701 34.1044C66.4316 34.1044 66.0931 34.0198 65.8392 33.8505C65.5854 33.6813 65.5007 33.4274 65.5854 33.0042L65.67 32.7504C65.7546 32.158 65.9239 31.8195 66.2624 31.5656C66.6009 31.3117 67.1086 31.2271 67.7856 31.2271H69.1397L68.7165 33.7659ZM73.6249 23.4415C73.1171 23.0184 72.4401 22.6798 71.5938 22.5106C70.8322 22.3413 69.9013 22.2567 68.9704 22.2567C68.5473 22.2567 68.0395 22.2567 67.5318 22.3413C67.024 22.3413 66.6009 22.426 66.0931 22.5106C65.5854 22.5952 65.2469 22.5952 64.8237 22.6798C64.4852 22.7645 63.8928 22.8491 63.7236 22.9337L63.1312 26.6573C63.8082 26.5727 64.7391 26.488 65.5854 26.488C66.4316 26.488 67.2779 26.488 68.1241 26.488C68.378 26.488 68.5473 26.488 68.8012 26.5727C69.055 26.5727 69.2243 26.6573 69.3935 26.8265C69.4782 26.9112 69.6474 27.0804 69.6474 27.2497C69.732 27.5035 69.732 27.6728 69.6474 28.0113L69.4782 28.7729H68.2934C66.0931 28.7729 64.316 29.1114 62.9619 29.7038C61.6079 30.3808 60.8463 31.3963 60.5924 33.0042L60.5078 33.3428C60.3385 34.189 60.4232 34.9506 60.5924 35.543C60.7617 36.1354 61.1002 36.6432 61.4387 36.9817C61.8618 37.3202 62.2849 37.5741 62.7927 37.7433C63.3004 37.9126 63.8082 37.9972 64.4006 37.9972C65.1622 37.9972 65.8392 37.8279 66.6009 37.5741C67.2779 37.3202 67.9549 36.9817 68.5473 36.6432L68.378 37.6587H73.2017L74.8942 27.9267C75.0635 26.8265 75.0635 25.9803 74.8096 25.2186C74.5557 24.457 74.1326 23.8646 73.6249 23.4415Z" fill="white"/>
</g>
<mask id="mask1_926_2684" style="mask-type:luminance" maskUnits="userSpaceOnUse" x="0" y="0" width="232" height="60">
<path d="M231.791 0H0V60H231.791V0Z" fill="white"/>
</mask>
<g mask="url(#mask1_926_2684)">
<path d="M115.346 33.7659C115.092 33.8505 114.753 33.9351 114.415 34.0198C114.076 34.1044 113.738 34.1044 113.399 34.1044C113.061 34.1044 112.722 34.0198 112.468 33.8505C112.214 33.6813 112.13 33.4274 112.214 33.0042L112.299 32.7504C112.384 32.158 112.637 31.8195 112.891 31.5656C113.23 31.3117 113.738 31.2271 114.415 31.2271H115.769L115.346 33.7659ZM121.354 25.134C121.1 24.457 120.762 23.8646 120.254 23.4415C119.746 23.0184 119.069 22.6798 118.223 22.5106C117.461 22.3413 116.53 22.2567 115.515 22.2567C115.092 22.2567 114.584 22.2567 114.076 22.3413C113.568 22.3413 113.061 22.426 112.638 22.5106C112.214 22.5952 111.791 22.5952 111.368 22.6798C111.03 22.7645 110.522 22.8491 110.268 22.9337L109.676 26.6573C110.353 26.5727 111.283 26.488 112.13 26.488C112.976 26.488 113.822 26.488 114.669 26.488C114.922 26.488 115.176 26.488 115.346 26.5727C115.515 26.5727 115.684 26.6573 115.853 26.7419C116.023 26.8265 116.107 26.9958 116.192 27.165C116.276 27.4189 116.276 27.5882 116.192 27.9267L116.107 28.6883H114.922C112.722 28.6883 110.86 29.0268 109.591 29.6192C108.237 30.2962 107.475 31.3117 107.221 32.9196V33.2581C107.052 34.1044 107.052 34.866 107.221 35.4584C107.391 36.0508 107.645 36.5585 108.068 36.8971C108.491 37.2356 108.914 37.4894 109.422 37.6587C109.929 37.8279 110.437 37.9126 111.03 37.9126C111.791 37.9126 112.553 37.8279 113.23 37.4894C113.907 37.2356 114.584 36.8971 115.176 36.5585L115.007 37.5741H119.915L121.608 27.842C121.608 26.7419 121.608 25.811 121.354 25.134Z" fill="white"/>
</g>
<mask id="mask2_926_2684" style="mask-type:luminance" maskUnits="userSpaceOnUse" x="0" y="0" width="232" height="60">
<path d="M231.791 0H0V60H231.791V0Z" fill="white"/>
</mask>
<g mask="url(#mask2_926_2684)">
<path d="M85.3879 28.6037H81.4104C81.5797 27.842 81.8336 27.2497 82.1721 26.7419C82.5952 26.2341 83.103 25.9803 83.8646 25.9803C84.5416 25.9803 84.9647 26.1495 85.134 26.4034C85.3879 26.6573 85.4725 27.0804 85.4725 27.5035C85.4725 27.9267 85.4725 28.2652 85.3879 28.6037ZM88.9422 23.8646C88.4344 23.3569 87.9267 22.9337 87.165 22.6798C86.4034 22.426 85.5571 22.2567 84.5416 22.2567C83.4415 22.2567 82.3413 22.426 81.4104 22.6798C80.4795 22.9337 79.6333 23.3569 78.9563 23.8646C78.1946 24.457 77.6023 25.2186 77.0945 26.0649C76.5867 26.9958 76.2482 28.0959 76.079 29.3653L75.8251 31.0578C75.7405 31.3117 75.7405 31.5656 75.7405 31.7349C75.7405 31.9887 75.7405 32.158 75.7405 32.3272C75.7405 33.2581 75.9097 34.1044 76.2482 34.7814C76.5867 35.4584 77.0099 36.0508 77.6023 36.4739C78.1946 36.8971 78.787 37.2356 79.5487 37.4894C80.2257 37.6587 80.9873 37.8279 81.7489 37.8279C82.9337 37.8279 83.9492 37.7433 84.8801 37.6587C85.811 37.4894 86.7419 37.3202 87.6728 37.0663L88.2652 33.512C88.0113 33.512 87.6728 33.5966 87.2496 33.5966C86.8265 33.5966 86.3188 33.6813 85.811 33.6813C85.3032 33.6813 84.7955 33.7659 84.3724 33.7659C83.8646 33.7659 83.4415 33.7659 83.103 33.7659C82.7645 33.7659 82.4259 33.7659 82.1721 33.6813C81.9182 33.6813 81.6643 33.512 81.4951 33.512C81.3258 33.4274 81.1566 33.2581 81.0719 33.0889C80.9873 32.9196 80.9027 32.6657 80.9027 32.3272C80.9027 32.0734 80.9027 31.8195 80.9873 31.5656H89.4499C89.6192 31.5656 89.7038 31.481 89.8731 31.3963C90.0423 31.3117 90.1269 31.1425 90.1269 30.9732L90.3808 29.4499C90.3808 29.1961 90.4654 28.9422 90.4654 28.6883C90.4654 28.4344 90.4654 28.1806 90.4654 27.9267C90.4654 27.165 90.3808 26.488 90.1269 25.7264C89.7884 24.8801 89.4499 24.2877 88.9422 23.8646Z" fill="white"/>
</g>
<mask id="mask3_926_2684" style="mask-type:luminance" maskUnits="userSpaceOnUse" x="0" y="0" width="232" height="60">
<path d="M231.791 0H0V60H231.791V0Z" fill="white"/>
</mask>
<g mask="url(#mask3_926_2684)">
<path d="M105.529 23.5261C105.19 23.103 104.767 22.7645 104.259 22.5952C103.667 22.3413 103.075 22.2567 102.313 22.2567C101.805 22.2567 101.213 22.3413 100.536 22.5106C99.7743 22.6798 99.0126 23.103 97.9971 23.6954L98.1663 23.0184V22.9337C98.1663 22.5952 97.9971 22.5106 97.7432 22.5106H93.5119L93.3427 23.3569L90.7192 37.5741H95.9661L97.9125 26.9958C98.1663 26.8265 98.5049 26.7419 98.928 26.5727C99.3511 26.4034 99.7742 26.4034 100.197 26.4034C100.705 26.4034 101.044 26.488 101.213 26.5727C101.382 26.7419 101.467 26.9958 101.467 27.3343C101.467 27.5882 101.467 27.7574 101.382 28.0113C101.382 28.1805 101.298 28.4344 101.213 28.6883L99.605 37.4894H104.767L106.29 28.8576C106.375 28.5191 106.375 28.1806 106.46 27.842C106.46 27.5035 106.544 27.165 106.544 26.8265C106.544 26.1495 106.46 25.5571 106.29 25.0494C106.121 24.457 105.867 23.9492 105.529 23.5261Z" fill="white"/>
</g>
<mask id="mask4_926_2684" style="mask-type:luminance" maskUnits="userSpaceOnUse" x="0" y="0" width="232" height="60">
<path d="M231.791 0H0V60H231.791V0Z" fill="white"/>
</mask>
<g mask="url(#mask4_926_2684)">
<path d="M60.8463 58.646C53.4838 49.1678 48.2369 39.859 44.9365 30.3808C41.6361 20.7334 40.3667 10.8322 41.1283 0.507757C41.1283 0.423131 41.0437 0.253879 40.9591 0.253879L39.859 0C39.7743 0 39.6897 0 39.6051 0.0846262C36.0508 8.03949 30.6347 15.1481 23.5261 21.0719C17.0099 26.488 9.13963 30.9732 0.169252 34.1044C0.0846262 34.1044 0 34.2736 0 34.3582L0.169252 35.7123C0.169252 35.7969 0.253879 35.8815 0.423131 35.8815C1.18477 35.8815 1.9464 35.8815 2.70804 35.8815C9.47814 35.8815 15.9944 36.5585 26.0649 39.6897C37.6587 43.3286 48.9986 50.1834 59.7461 59.9154C59.8307 59.9154 59.8307 60 59.9154 60C60 60 60 60 60.0846 59.9154L60.9309 58.8999C60.9309 58.8152 60.9309 58.7306 60.8463 58.646Z" fill="#96CE00"/>
</g>
<mask id="mask5_926_2684" style="mask-type:luminance" maskUnits="userSpaceOnUse" x="0" y="0" width="232" height="60">
<path d="M231.791 0H0V60H231.791V0Z" fill="white"/>
</mask>
<g mask="url(#mask5_926_2684)">
<path d="M217.743 52.4683C217.574 52.4683 217.489 52.4683 217.405 52.4683C217.066 52.3837 216.135 52.2991 215.035 52.0452C213.427 51.7913 211.312 51.4528 211.058 51.4528C210.889 51.4528 210.719 51.2836 210.635 51.1143C210.635 51.1143 208.265 46.9676 208.18 46.883C208.096 46.7137 208.011 46.4599 208.096 46.2906C208.18 46.0367 208.434 45.6982 208.688 45.6136C209.788 45.0212 210.973 45.529 211.65 46.1214C212.666 46.9676 213.173 47.4754 213.512 47.6446L217.659 47.3061L215.289 43.4979C215.204 43.2441 215.12 43.0748 215.204 42.8209C215.289 42.4824 215.628 42.2285 216.051 42.0593C217.066 41.7208 218.336 41.9747 219.267 42.9056C221.213 44.5981 223.075 46.2906 223.582 46.7984H229.422C230.776 46.883 231.537 47.3907 231.791 48.3216C231.876 48.8294 231.791 49.3371 231.453 49.7603C231.114 50.1834 230.606 50.5219 230.014 50.6065C229.591 50.6912 228.745 50.7758 227.645 51.0297C222.398 51.9606 219.013 52.4683 217.743 52.4683ZM211.566 50.3527C212.243 50.4373 213.85 50.6912 215.204 50.945C216.305 51.1143 217.235 51.2836 217.574 51.3682C218.42 51.4528 224.513 50.5219 227.475 50.0142C228.575 49.8449 229.422 49.6757 229.845 49.591C230.099 49.591 230.268 49.4218 230.437 49.2525C230.522 49.0833 230.606 48.914 230.522 48.7448C230.437 48.5755 230.437 48.237 229.337 48.1524H223.329C223.159 48.1524 222.99 48.0678 222.905 47.9831C222.905 47.9831 220.79 46.0367 218.42 44.0057C217.743 43.4133 216.897 43.2441 216.474 43.4133L219.182 47.6446C219.267 47.8139 219.267 48.0678 219.182 48.237C219.097 48.4063 218.928 48.5755 218.674 48.5755L213.258 48.9986C213.089 48.9986 212.92 48.9986 212.835 48.8294C212.835 48.8294 212.327 48.3216 210.889 47.1369C210.55 46.7984 209.958 46.5445 209.365 46.7137C209.788 47.3061 210.719 48.914 211.566 50.3527Z" fill="#96CE00"/>
</g>
<mask id="mask6_926_2684" style="mask-type:luminance" maskUnits="userSpaceOnUse" x="0" y="0" width="232" height="60">
<path d="M231.791 0H0V60H231.791V0Z" fill="white"/>
</mask>
<g mask="url(#mask6_926_2684)">
<path d="M148.265 24.457H146.573C146.403 24.457 146.234 24.2877 146.234 24.1184V23.8646C145.642 24.2877 145.049 24.5416 144.119 24.5416C142.765 24.5416 141.495 23.8646 141.495 21.9182V21.7489C141.495 19.9718 142.68 19.2101 145.219 19.2101H146.065V18.6177C146.065 17.7715 145.642 17.6022 144.88 17.6022C143.949 17.6022 142.849 17.6869 142.341 17.6869H142.257C142.088 17.6869 142.003 17.6022 142.003 17.433V16.1636C142.003 15.9943 142.088 15.9097 142.341 15.8251C142.934 15.6558 143.949 15.4866 144.965 15.4866C147.165 15.4866 148.519 16.4175 148.519 18.6177V24.0338C148.604 24.3723 148.434 24.457 148.265 24.457ZM146.15 20.7334H145.303C144.288 20.7334 143.949 21.0719 143.949 21.8335V22.0028C143.949 22.5952 144.288 22.7644 144.88 22.7644C145.303 22.7644 145.811 22.5952 146.15 22.4259V20.7334Z" fill="#96CE00"/>
</g>
<mask id="mask7_926_2684" style="mask-type:luminance" maskUnits="userSpaceOnUse" x="0" y="0" width="232" height="60">
<path d="M231.791 0H0V60H231.791V0Z" fill="white"/>
</mask>
<g mask="url(#mask7_926_2684)">
<path d="M157.659 20.9027H152.835C152.835 21.7489 153.174 22.5952 154.358 22.5952C155.289 22.5952 156.643 22.5106 157.32 22.426H157.405C157.574 22.426 157.659 22.5106 157.659 22.6798V23.8646C157.659 24.1185 157.574 24.2031 157.32 24.2877C156.305 24.5416 155.543 24.6262 154.189 24.6262C152.327 24.6262 150.381 23.6953 150.381 20.7334V19.7179C150.381 17.2637 151.82 15.7405 154.189 15.7405C156.728 15.7405 157.997 17.433 157.997 19.7179V20.5642C157.913 20.7334 157.828 20.9027 157.659 20.9027ZM155.543 19.2948C155.543 18.1946 155.035 17.6023 154.189 17.6023C153.343 17.6023 152.75 18.1946 152.75 19.2948V19.3794L155.543 19.2948Z" fill="#96CE00"/>
</g>
<mask id="mask8_926_2684" style="mask-type:luminance" maskUnits="userSpaceOnUse" x="0" y="0" width="232" height="60">
<path d="M231.791 0H0V60H231.791V0Z" fill="white"/>
</mask>
<g mask="url(#mask8_926_2684)">
<path d="M164.26 17.6869H164.175C163.413 17.6869 162.736 17.9408 162.228 18.1947V24.1185C162.228 24.2878 162.059 24.457 161.89 24.457H160.028C159.859 24.457 159.69 24.2878 159.69 24.1185V16.079C159.69 15.9098 159.859 15.7405 160.028 15.7405H161.805C161.975 15.7405 162.144 15.9098 162.144 16.079V16.4175C162.736 15.9944 163.498 15.6559 164.175 15.6559C164.344 15.6559 164.513 15.8251 164.513 15.9944V17.433C164.513 17.5177 164.344 17.6869 164.26 17.6869Z" fill="#96CE00"/>
</g>
<mask id="mask9_926_2684" style="mask-type:luminance" maskUnits="userSpaceOnUse" x="0" y="0" width="232" height="60">
<path d="M231.791 0H0V60H231.791V0Z" fill="white"/>
</mask>
<g mask="url(#mask9_926_2684)">
<path d="M169.168 24.6263C166.714 24.6263 165.36 23.103 165.36 20.6488V19.6333C165.36 17.1792 166.714 15.6559 169.168 15.6559C171.622 15.6559 172.976 17.1792 172.976 19.6333V20.6488C172.976 23.103 171.622 24.6263 169.168 24.6263ZM170.522 19.6333C170.522 18.3639 170.014 17.7715 169.168 17.7715C168.322 17.7715 167.814 18.3639 167.814 19.6333V20.6488C167.814 21.9182 168.322 22.5106 169.168 22.5106C170.099 22.5106 170.522 21.8336 170.522 20.6488V19.6333Z" fill="#96CE00"/>
</g>
<mask id="mask10_926_2684" style="mask-type:luminance" maskUnits="userSpaceOnUse" x="0" y="0" width="232" height="60">
<path d="M231.791 0H0V60H231.791V0Z" fill="white"/>
</mask>
<g mask="url(#mask10_926_2684)">
<path d="M178.392 24.6263C178.054 24.6263 177.546 24.5416 177.123 24.5416V27.1651C177.123 27.3343 176.954 27.5036 176.784 27.5036H174.922C174.753 27.5036 174.584 27.3343 174.584 27.1651V16.5021C174.584 16.2483 174.669 16.1636 175.007 16.079C175.853 15.8251 177.038 15.6559 178.223 15.6559C180.677 15.6559 182.031 17.0945 182.031 19.5487V20.7335C182.2 23.103 181.016 24.6263 178.392 24.6263ZM179.746 19.5487C179.746 18.4485 179.492 17.6869 178.392 17.6869C177.884 17.6869 177.461 17.6869 177.123 17.7715V22.5106C177.461 22.5952 177.969 22.5952 178.392 22.5952C179.492 22.5952 179.746 21.749 179.746 20.7335V19.5487Z" fill="#96CE00"/>
</g>
<mask id="mask11_926_2684" style="mask-type:luminance" maskUnits="userSpaceOnUse" x="0" y="0" width="232" height="60">
<path d="M231.791 0H0V60H231.791V0Z" fill="white"/>
</mask>
<g mask="url(#mask11_926_2684)">
<path d="M191.086 24.457H189.394C189.224 24.457 189.055 24.2878 189.055 24.1185V23.78C188.209 24.3724 187.532 24.5416 186.601 24.5416C184.401 24.5416 183.893 23.0184 183.893 21.072V15.9944C183.893 15.8251 184.062 15.6559 184.231 15.6559H186.093C186.262 15.6559 186.432 15.8251 186.432 15.9944V21.072C186.432 22.0875 186.601 22.5106 187.532 22.5106C187.955 22.5106 188.463 22.2567 188.97 22.0029V16.079C188.97 15.9098 189.14 15.7405 189.309 15.7405H191.171C191.34 15.7405 191.509 15.9098 191.509 16.079V24.2031C191.425 24.3724 191.255 24.457 191.086 24.457Z" fill="#96CE00"/>
</g>
<mask id="mask12_926_2684" style="mask-type:luminance" maskUnits="userSpaceOnUse" x="0" y="0" width="232" height="60">
<path d="M231.791 0H0V60H231.791V0Z" fill="white"/>
</mask>
<g mask="url(#mask12_926_2684)">
<path d="M200.48 20.9027H195.656C195.656 21.7489 195.994 22.5952 197.179 22.5952C198.11 22.5952 199.464 22.5106 200.141 22.426H200.226C200.395 22.426 200.564 22.5106 200.564 22.6798V23.8646C200.564 24.1185 200.48 24.2031 200.226 24.2877C199.21 24.5416 198.449 24.6262 197.095 24.6262C195.233 24.6262 193.286 23.6953 193.286 20.7334V19.7179C193.286 17.2637 194.725 15.7405 197.095 15.7405C199.633 15.7405 200.903 17.433 200.903 19.7179V20.5642C200.818 20.7334 200.649 20.9027 200.48 20.9027ZM198.364 19.2948C198.364 18.1946 197.856 17.6023 197.01 17.6023C196.164 17.6023 195.571 18.1946 195.571 19.2948V19.3794L198.364 19.2948Z" fill="#96CE00"/>
</g>
<mask id="mask13_926_2684" style="mask-type:luminance" maskUnits="userSpaceOnUse" x="0" y="0" width="232" height="60">
<path d="M231.791 0H0V60H231.791V0Z" fill="white"/>
</mask>
<g mask="url(#mask13_926_2684)">
<path d="M207.08 17.6869H206.996C206.234 17.6869 205.557 17.9408 205.049 18.1947V24.1185C205.049 24.2878 204.88 24.457 204.711 24.457H202.849C202.68 24.457 202.51 24.2878 202.51 24.1185V16.079C202.51 15.9098 202.68 15.7405 202.849 15.7405H204.626C204.795 15.7405 204.965 15.9098 204.965 16.079V16.4175C205.557 15.9944 206.319 15.6559 206.996 15.6559C207.165 15.6559 207.334 15.8251 207.334 15.9944V17.433C207.334 17.5177 207.25 17.6869 207.08 17.6869Z" fill="#96CE00"/>
</g>
<mask id="mask14_926_2684" style="mask-type:luminance" maskUnits="userSpaceOnUse" x="0" y="0" width="232" height="60">
<path d="M231.791 0H0V60H231.791V0Z" fill="white"/>
</mask>
<g mask="url(#mask14_926_2684)">
<path d="M213.427 24.5416C213.004 24.6262 212.666 24.6262 212.242 24.6262C210.55 24.6262 209.704 24.2031 209.704 22.0028V17.6022L208.519 17.433C208.35 17.433 208.18 17.2637 208.18 17.0945V16.079C208.18 15.9097 208.35 15.7405 208.519 15.7405H209.704V14.4711C209.704 14.3018 209.873 14.2172 210.042 14.1326L211.904 13.7941H211.989C212.158 13.7941 212.242 13.8787 212.242 14.0479V15.6558H213.512C213.681 15.6558 213.85 15.8251 213.85 15.9943V17.2637C213.85 17.433 213.681 17.6022 213.512 17.6022H212.242V22.0028C212.242 22.5952 212.327 22.6798 212.75 22.6798H213.512C213.681 22.6798 213.85 22.7644 213.85 22.9337V24.1185C213.766 24.3723 213.681 24.457 213.427 24.5416Z" fill="#96CE00"/>
</g>
<mask id="mask15_926_2684" style="mask-type:luminance" maskUnits="userSpaceOnUse" x="0" y="0" width="232" height="60">
<path d="M231.791 0H0V60H231.791V0Z" fill="white"/>
</mask>
<g mask="url(#mask15_926_2684)">
<path d="M218.674 24.6263C216.22 24.6263 214.866 23.103 214.866 20.6488V19.6333C214.866 17.1792 216.22 15.6559 218.674 15.6559C221.128 15.6559 222.482 17.1792 222.482 19.6333V20.6488C222.567 23.103 221.213 24.6263 218.674 24.6263ZM220.028 19.6333C220.028 18.3639 219.52 17.7715 218.674 17.7715C217.828 17.7715 217.32 18.3639 217.32 19.6333V20.6488C217.32 21.9182 217.828 22.5106 218.674 22.5106C219.605 22.5106 220.028 21.8336 220.028 20.6488V19.6333Z" fill="#96CE00"/>
</g>
<mask id="mask16_926_2684" style="mask-type:luminance" maskUnits="userSpaceOnUse" x="0" y="0" width="232" height="60">
<path d="M231.791 0H0V60H231.791V0Z" fill="white"/>
</mask>
<g mask="url(#mask16_926_2684)">
<path d="M227.137 24.6262C226.291 24.6262 225.106 24.5416 224.344 24.2877C224.175 24.2031 224.006 24.1184 224.006 23.9492V22.6798C224.006 22.5105 224.09 22.4259 224.344 22.4259H224.429C225.275 22.5106 226.544 22.5952 227.052 22.5952C227.814 22.5952 227.983 22.4259 227.983 22.0028C227.983 21.7489 227.814 21.5797 227.475 21.3258L225.529 20.141C224.683 19.6333 224.175 18.8716 224.175 17.8561C224.175 16.3328 225.19 15.4866 227.306 15.4866C228.491 15.4866 229.252 15.6558 230.014 15.8251C230.183 15.9097 230.353 15.9943 230.353 16.1636V17.433C230.353 17.6022 230.268 17.6869 230.099 17.6869H230.014C229.591 17.6022 228.237 17.5176 227.475 17.5176C226.883 17.5176 226.629 17.6022 226.629 17.9407C226.629 18.1946 226.798 18.2792 227.052 18.4485L228.914 19.5486C230.183 20.3103 230.437 21.0719 230.437 21.9182C230.353 23.5261 229.337 24.6262 227.137 24.6262Z" fill="#96CE00"/>
</g>
<mask id="mask17_926_2684" style="mask-type:luminance" maskUnits="userSpaceOnUse" x="0" y="0" width="232" height="60">
<path d="M231.791 0H0V60H231.791V0Z" fill="white"/>
</mask>
<g mask="url(#mask17_926_2684)">
<path d="M145.557 43.1593C145.219 43.1593 144.711 43.0747 144.288 43.0747V45.6981C144.288 45.8674 144.118 46.0366 143.949 46.0366H142.172C142.003 46.0366 141.833 45.8674 141.833 45.6981V35.0352C141.833 34.7813 141.918 34.6967 142.257 34.6121C143.103 34.4428 144.288 34.189 145.472 34.189C147.927 34.189 149.281 35.6276 149.281 38.0818V39.2665C149.365 41.6361 148.096 43.1593 145.557 43.1593ZM146.911 38.0818C146.911 36.9816 146.657 36.22 145.557 36.22C145.049 36.22 144.626 36.22 144.288 36.3046V41.0437C144.626 41.1283 145.134 41.1283 145.557 41.1283C146.657 41.1283 146.911 40.2821 146.911 39.2665V38.0818Z" fill="#96CE00"/>
</g>
<mask id="mask18_926_2684" style="mask-type:luminance" maskUnits="userSpaceOnUse" x="0" y="0" width="232" height="60">
<path d="M231.791 0H0V60H231.791V0Z" fill="white"/>
</mask>
<g mask="url(#mask18_926_2684)">
<path d="M157.489 43.0748H155.797C155.628 43.0748 155.458 42.9055 155.458 42.7362V42.4824C154.866 42.9055 154.274 43.1594 153.343 43.1594C151.989 43.1594 150.719 42.4824 150.719 40.536V40.3667C150.719 38.5896 151.819 37.8279 154.443 37.8279H155.289V37.2355C155.289 36.3893 154.866 36.22 154.104 36.22C153.173 36.22 152.073 36.3047 151.566 36.3047H151.481C151.312 36.3047 151.227 36.22 151.227 36.0508V34.7814C151.227 34.6121 151.312 34.5275 151.566 34.4429C152.158 34.2736 153.173 34.1044 154.189 34.1044C156.389 34.1044 157.743 34.9506 157.743 37.2355V42.6516C157.828 42.9055 157.659 43.0748 157.489 43.0748ZM155.374 39.2666H154.527C153.512 39.2666 153.173 39.6051 153.173 40.3667V40.536C153.173 41.213 153.512 41.2976 154.104 41.2976C154.527 41.2976 155.035 41.1283 155.374 40.9591V39.2666Z" fill="#96CE00"/>
</g>
<mask id="mask19_926_2684" style="mask-type:luminance" maskUnits="userSpaceOnUse" x="0" y="0" width="232" height="60">
<path d="M231.791 0H0V60H231.791V0Z" fill="white"/>
</mask>
<g mask="url(#mask19_926_2684)">
<path d="M164.344 36.22H164.26C163.498 36.22 162.821 36.4739 162.313 36.7278V42.6516C162.313 42.8209 162.144 42.9901 161.975 42.9901H160.113C159.944 42.9901 159.774 42.8209 159.774 42.6516V34.5275C159.774 34.3582 159.944 34.189 160.113 34.189H161.89C162.059 34.189 162.229 34.3582 162.229 34.5275V34.866C162.821 34.4429 163.583 34.1044 164.26 34.1044C164.429 34.1044 164.598 34.2736 164.598 34.4429V35.8815C164.598 36.0508 164.513 36.22 164.344 36.22Z" fill="#96CE00"/>
</g>
<mask id="mask20_926_2684" style="mask-type:luminance" maskUnits="userSpaceOnUse" x="0" y="0" width="232" height="60">
<path d="M231.791 0H0V60H231.791V0Z" fill="white"/>
</mask>
<g mask="url(#mask20_926_2684)">
<path d="M172.045 43.0748H170.353C170.183 43.0748 170.014 42.9055 170.014 42.7362V42.4824C169.422 42.9055 168.829 43.1594 167.899 43.1594C166.545 43.1594 165.275 42.4824 165.275 40.536V40.3667C165.275 38.5896 166.375 37.8279 168.999 37.8279H169.845V37.2355C169.845 36.3893 169.422 36.22 168.66 36.22C167.729 36.22 166.629 36.3047 166.121 36.3047H166.037C165.868 36.3047 165.783 36.22 165.783 36.0508V34.7814C165.783 34.6121 165.868 34.5275 166.037 34.4429C166.629 34.2736 167.645 34.1044 168.66 34.1044C170.86 34.1044 172.214 34.9506 172.214 37.2355V42.6516C172.384 42.9055 172.214 43.0748 172.045 43.0748ZM169.93 39.2666H169.083C168.068 39.2666 167.729 39.6051 167.729 40.3667V40.536C167.729 41.213 168.068 41.2976 168.66 41.2976C169.083 41.2976 169.506 41.1283 169.93 40.9591V39.2666Z" fill="#96CE00"/>
</g>
<mask id="mask21_926_2684" style="mask-type:luminance" maskUnits="userSpaceOnUse" x="0" y="0" width="232" height="60">
<path d="M231.791 0H0V60H231.791V0Z" fill="white"/>
</mask>
<g mask="url(#mask21_926_2684)">
<path d="M183.216 43.0748C182.793 43.1594 182.454 43.1594 182.031 43.1594C180.339 43.1594 179.492 42.7363 179.492 40.536V36.1355L178.307 35.9662C178.138 35.9662 177.969 35.7969 177.969 35.6277V34.6122C177.969 34.4429 178.138 34.2737 178.307 34.2737H179.492V33.0043C179.492 32.835 179.662 32.7504 179.831 32.6658L181.693 32.3273H181.777C181.946 32.3273 182.031 32.4119 182.031 32.5811V34.189H183.3C183.47 34.189 183.639 34.3583 183.639 34.5276V35.7969C183.639 35.9662 183.47 36.1355 183.3 36.1355H181.946V40.6206C181.946 41.213 182.031 41.2976 182.454 41.2976H183.216C183.385 41.2976 183.554 41.3823 183.554 41.5515V42.7363C183.47 42.9055 183.385 42.9902 183.216 43.0748Z" fill="#96CE00"/>
</g>
<mask id="mask22_926_2684" style="mask-type:luminance" maskUnits="userSpaceOnUse" x="0" y="0" width="232" height="60">
<path d="M231.791 0H0V60H231.791V0Z" fill="white"/>
</mask>
<g mask="url(#mask22_926_2684)">
<path d="M187.278 33.3427H185.331C185.162 33.3427 184.993 33.1735 184.993 33.0042V31.5656C184.993 31.3963 185.162 31.2271 185.331 31.2271H187.278C187.447 31.2271 187.616 31.3963 187.616 31.5656V33.0042C187.616 33.1735 187.447 33.3427 187.278 33.3427ZM187.193 43.0747H185.331C185.162 43.0747 184.993 42.9055 184.993 42.7362V34.6121C184.993 34.4428 185.162 34.2736 185.331 34.2736H187.193C187.362 34.2736 187.532 34.4428 187.532 34.6121V42.7362C187.532 42.9055 187.362 43.0747 187.193 43.0747Z" fill="#96CE00"/>
</g>
<mask id="mask23_926_2684" style="mask-type:luminance" maskUnits="userSpaceOnUse" x="0" y="0" width="232" height="60">
<path d="M231.791 0H0V60H231.791V0Z" fill="white"/>
</mask>
<g mask="url(#mask23_926_2684)">
<path d="M203.357 49.6755H141.749C141.58 49.6755 141.495 49.8448 141.495 50.014V50.7757C141.495 50.9449 141.664 51.1142 141.749 51.1142H203.357C203.526 51.1142 203.611 50.9449 203.611 50.7757V49.9294C203.695 49.8448 203.526 49.6755 203.357 49.6755Z" fill="#96CE00"/>
</g>
</g>
<defs>
<clipPath id="clip0_926_2684">
<rect width="231.791" height="60" fill="white"/>
</clipPath>
</defs>
</svg>
