<svg width="232" height="60" viewBox="0 0 232 60" fill="none" xmlns="http://www.w3.org/2000/svg">
<g clip-path="url(#clip0_943_4466)">
<mask id="mask0_943_4466" style="mask-type:luminance" maskUnits="userSpaceOnUse" x="0" y="0" width="232" height="60">
<path d="M231.791 0H0V60H231.791V0Z" fill="white"/>
</mask>
<g mask="url(#mask0_943_4466)">
<path d="M68.716 33.7659C68.4622 33.8505 68.1237 33.9351 67.7852 34.0198C67.4466 34.1044 67.1081 34.1044 66.7696 34.1044C66.4311 34.1044 66.0926 34.0198 65.8388 33.8505C65.5849 33.6813 65.5002 33.4274 65.5849 33.0042L65.6695 32.7504C65.7541 32.158 65.9234 31.8195 66.2619 31.5656C66.6004 31.3117 67.1081 31.2271 67.7852 31.2271H69.1392L68.716 33.7659ZM73.6244 23.4415C73.1166 23.0184 72.4396 22.6798 71.5933 22.5106C70.8317 22.3413 69.9008 22.2567 68.9699 22.2567C68.5468 22.2567 68.039 22.2567 67.5313 22.3413C67.0235 22.3413 66.6004 22.426 66.0926 22.5106C65.5849 22.5952 65.2464 22.5952 64.8232 22.6798C64.4847 22.7645 63.8923 22.8491 63.7231 22.9337L63.1307 26.6573C63.8077 26.5727 64.7386 26.488 65.5849 26.488C66.4311 26.488 67.2774 26.488 68.1237 26.488C68.3775 26.488 68.5468 26.488 68.8007 26.5727C69.0545 26.5727 69.2238 26.6573 69.3931 26.8265C69.4777 26.9112 69.6469 27.0804 69.6469 27.2497C69.7316 27.5035 69.7316 27.6728 69.6469 28.0113L69.4777 28.7729H68.2929C66.0926 28.7729 64.3155 29.1114 62.9615 29.7038C61.6074 30.3808 60.8458 31.3963 60.5919 33.0042L60.5073 33.3428C60.338 34.189 60.4227 34.9506 60.5919 35.543C60.7612 36.1354 61.0997 36.6432 61.4382 36.9817C61.8613 37.3202 62.2844 37.5741 62.7922 37.7433C63.3 37.9126 63.8077 37.9972 64.4001 37.9972C65.1617 37.9972 65.8387 37.8279 66.6004 37.5741C67.2774 37.3202 67.9544 36.9817 68.5468 36.6432L68.3775 37.6587H73.2012L74.8938 27.9267C75.063 26.8265 75.063 25.9803 74.8091 25.2186C74.5553 24.457 74.1321 23.8646 73.6244 23.4415Z" fill="#1A2732"/>
</g>
<mask id="mask1_943_4466" style="mask-type:luminance" maskUnits="userSpaceOnUse" x="0" y="0" width="232" height="60">
<path d="M231.791 0H0V60H231.791V0Z" fill="white"/>
</mask>
<g mask="url(#mask1_943_4466)">
<path d="M115.346 33.7659C115.092 33.8505 114.753 33.9351 114.415 34.0198C114.076 34.1044 113.738 34.1044 113.399 34.1044C113.061 34.1044 112.722 34.0198 112.468 33.8505C112.215 33.6813 112.13 33.4274 112.215 33.0042L112.299 32.7504C112.384 32.158 112.638 31.8195 112.892 31.5656C113.23 31.3117 113.738 31.2271 114.415 31.2271H115.769L115.346 33.7659ZM121.354 25.134C121.1 24.457 120.762 23.8646 120.254 23.4415C119.746 23.0184 119.069 22.6798 118.223 22.5106C117.461 22.3413 116.531 22.2567 115.515 22.2567C115.092 22.2567 114.584 22.2567 114.076 22.3413C113.569 22.3413 113.061 22.426 112.638 22.5106C112.215 22.5952 111.791 22.5952 111.368 22.6798C111.03 22.7645 110.522 22.8491 110.268 22.9337L109.676 26.6573C110.353 26.5727 111.284 26.488 112.13 26.488C112.976 26.488 113.823 26.488 114.669 26.488C114.923 26.488 115.177 26.488 115.346 26.5727C115.515 26.5727 115.684 26.6573 115.854 26.7419C116.023 26.8265 116.107 26.9958 116.192 27.165C116.277 27.4189 116.277 27.5882 116.192 27.9267L116.107 28.6883H114.923C112.722 28.6883 110.861 29.0268 109.591 29.6192C108.237 30.2962 107.476 31.3117 107.222 32.9196V33.2581C107.052 34.1044 107.052 34.866 107.222 35.4584C107.391 36.0508 107.645 36.5585 108.068 36.8971C108.491 37.2356 108.914 37.4894 109.422 37.6587C109.93 37.8279 110.437 37.9126 111.03 37.9126C111.791 37.9126 112.553 37.8279 113.23 37.4894C113.907 37.2356 114.584 36.8971 115.177 36.5585L115.007 37.5741H119.916L121.608 27.842C121.608 26.7419 121.608 25.811 121.354 25.134Z" fill="#1A2732"/>
</g>
<mask id="mask2_943_4466" style="mask-type:luminance" maskUnits="userSpaceOnUse" x="0" y="0" width="232" height="60">
<path d="M231.791 0H0V60H231.791V0Z" fill="white"/>
</mask>
<g mask="url(#mask2_943_4466)">
<path d="M85.3876 28.6037H81.4102C81.5794 27.842 81.8333 27.2497 82.1718 26.7419C82.595 26.2341 83.1027 25.9803 83.8644 25.9803C84.5414 25.9803 84.9645 26.1495 85.1337 26.4034C85.3876 26.6573 85.4723 27.0804 85.4723 27.5035C85.4723 27.9267 85.4723 28.2652 85.3876 28.6037ZM88.9419 23.8646C88.4342 23.3569 87.9264 22.9337 87.1648 22.6798C86.4031 22.426 85.5569 22.2567 84.5414 22.2567C83.4412 22.2567 82.3411 22.426 81.4102 22.6798C80.4793 22.9337 79.633 23.3569 78.956 23.8646C78.1944 24.457 77.602 25.2186 77.0943 26.0649C76.5865 26.9958 76.248 28.0959 76.0787 29.3653L75.8249 31.0578C75.7402 31.3117 75.7402 31.5656 75.7402 31.7349C75.7402 31.9887 75.7402 32.158 75.7402 32.3272C75.7402 33.2581 75.9095 34.1044 76.248 34.7814C76.5865 35.4584 77.0096 36.0508 77.602 36.4739C78.1944 36.8971 78.7868 37.2356 79.5484 37.4894C80.2254 37.6587 80.9871 37.8279 81.7487 37.8279C82.9335 37.8279 83.949 37.7433 84.8799 37.6587C85.8108 37.4894 86.7416 37.3202 87.6725 37.0663L88.2649 33.512C88.011 33.512 87.6725 33.5966 87.2494 33.5966C86.8263 33.5966 86.3185 33.6813 85.8108 33.6813C85.303 33.6813 84.7952 33.7659 84.3721 33.7659C83.8644 33.7659 83.4412 33.7659 83.1027 33.7659C82.7642 33.7659 82.4257 33.7659 82.1718 33.6813C81.9179 33.6813 81.6641 33.512 81.4948 33.512C81.3256 33.4274 81.1563 33.2581 81.0717 33.0889C80.9871 32.9196 80.9024 32.6657 80.9024 32.3272C80.9024 32.0734 80.9024 31.8195 80.9871 31.5656H89.4497C89.6189 31.5656 89.7036 31.481 89.8728 31.3963C90.0421 31.3117 90.1267 31.1425 90.1267 30.9732L90.3806 29.4499C90.3806 29.1961 90.4652 28.9422 90.4652 28.6883C90.4652 28.4344 90.4652 28.1806 90.4652 27.9267C90.4652 27.165 90.3806 26.488 90.1267 25.7264C89.7882 24.8801 89.4497 24.2877 88.9419 23.8646Z" fill="#1A2732"/>
</g>
<mask id="mask3_943_4466" style="mask-type:luminance" maskUnits="userSpaceOnUse" x="0" y="0" width="232" height="60">
<path d="M231.791 0H0V60H231.791V0Z" fill="white"/>
</mask>
<g mask="url(#mask3_943_4466)">
<path d="M105.529 23.5261C105.191 23.103 104.768 22.7645 104.26 22.5952C103.668 22.3413 103.075 22.2567 102.314 22.2567C101.806 22.2567 101.213 22.3413 100.536 22.5106C99.7747 22.6798 99.0131 23.103 97.9976 23.6954L98.1668 23.0184V22.9337C98.1668 22.5952 97.9976 22.5106 97.7437 22.5106H93.5124L93.3431 23.3569L90.7197 37.5741H95.9666L97.913 26.9958C98.1668 26.8265 98.5053 26.7419 98.9285 26.5727C99.3516 26.4034 99.7747 26.4034 100.198 26.4034C100.706 26.4034 101.044 26.488 101.213 26.5727C101.383 26.7419 101.467 26.9958 101.467 27.3343C101.467 27.5882 101.467 27.7574 101.383 28.0113C101.383 28.1805 101.298 28.4344 101.213 28.6883L99.6055 37.4894H104.768L106.291 28.8576C106.376 28.5191 106.376 28.1806 106.46 27.842C106.46 27.5035 106.545 27.165 106.545 26.8265C106.545 26.1495 106.46 25.5571 106.291 25.0494C106.122 24.457 105.868 23.9492 105.529 23.5261Z" fill="#1A2732"/>
</g>
<mask id="mask4_943_4466" style="mask-type:luminance" maskUnits="userSpaceOnUse" x="0" y="0" width="232" height="60">
<path d="M231.791 0H0V60H231.791V0Z" fill="white"/>
</mask>
<g mask="url(#mask4_943_4466)">
<path d="M60.8463 58.646C53.4838 49.1678 48.2369 39.859 44.9365 30.3808C41.6361 20.7334 40.3667 10.8322 41.1283 0.507757C41.1283 0.423131 41.0437 0.253879 40.9591 0.253879L39.859 0C39.7743 0 39.6897 0 39.6051 0.0846262C36.0508 8.03949 30.6347 15.1481 23.5261 21.0719C17.0099 26.488 9.13963 30.9732 0.169252 34.1044C0.0846262 34.1044 0 34.2736 0 34.3582L0.169252 35.7123C0.169252 35.7969 0.253879 35.8815 0.423131 35.8815C1.18477 35.8815 1.9464 35.8815 2.70804 35.8815C9.47814 35.8815 15.9944 36.5585 26.0649 39.6897C37.6587 43.3286 48.9986 50.1834 59.7461 59.9154C59.8307 59.9154 59.8307 60 59.9154 60C60 60 60 60 60.0846 59.9154L60.9309 58.8999C60.9309 58.8152 60.9309 58.7306 60.8463 58.646Z" fill="white"/>
</g>
<mask id="mask5_943_4466" style="mask-type:luminance" maskUnits="userSpaceOnUse" x="0" y="0" width="232" height="60">
<path d="M231.791 0H0V60H231.791V0Z" fill="white"/>
</mask>
<g mask="url(#mask5_943_4466)">
<path d="M217.743 52.4683C217.574 52.4683 217.489 52.4683 217.404 52.4683C217.066 52.3837 216.135 52.2991 215.035 52.0452C213.427 51.7913 211.311 51.4528 211.058 51.4528C210.888 51.4528 210.719 51.2836 210.634 51.1143C210.634 51.1143 208.265 46.9676 208.18 46.883C208.096 46.7137 208.011 46.4599 208.096 46.2906C208.18 46.0367 208.434 45.6982 208.688 45.6136C209.788 45.0212 210.973 45.529 211.65 46.1214C212.665 46.9676 213.173 47.4754 213.512 47.6446L217.658 47.3061L215.289 43.4979C215.204 43.2441 215.12 43.0748 215.204 42.8209C215.289 42.4824 215.627 42.2285 216.05 42.0593C217.066 41.7208 218.335 41.9747 219.266 42.9056C221.213 44.5981 223.074 46.2906 223.582 46.7984H229.421C230.775 46.883 231.537 47.3907 231.791 48.3216C231.876 48.8294 231.791 49.3371 231.452 49.7603C231.114 50.1834 230.606 50.5219 230.014 50.6065C229.591 50.6912 228.744 50.7758 227.644 51.0297C222.397 51.9606 219.012 52.4683 217.743 52.4683ZM211.565 50.3527C212.242 50.4373 213.85 50.6912 215.204 50.945C216.304 51.1143 217.235 51.2836 217.574 51.3682C218.42 51.4528 224.513 50.5219 227.475 50.0142C228.575 49.8449 229.421 49.6757 229.845 49.591C230.098 49.591 230.268 49.4218 230.437 49.2525C230.522 49.0833 230.606 48.914 230.522 48.7448C230.437 48.5755 230.437 48.237 229.337 48.1524H223.328C223.159 48.1524 222.99 48.0678 222.905 47.9831C222.905 47.9831 220.79 46.0367 218.42 44.0057C217.743 43.4133 216.897 43.2441 216.474 43.4133L219.182 47.6446C219.266 47.8139 219.266 48.0678 219.182 48.237C219.097 48.4063 218.928 48.5755 218.674 48.5755L213.258 48.9986C213.089 48.9986 212.919 48.9986 212.835 48.8294C212.835 48.8294 212.327 48.3216 210.888 47.1369C210.55 46.7984 209.957 46.5445 209.365 46.7137C209.788 47.3061 210.719 48.914 211.565 50.3527Z" fill="white"/>
</g>
<mask id="mask6_943_4466" style="mask-type:luminance" maskUnits="userSpaceOnUse" x="0" y="0" width="232" height="60">
<path d="M231.791 0H0V60H231.791V0Z" fill="white"/>
</mask>
<g mask="url(#mask6_943_4466)">
<path d="M148.265 24.457H146.573C146.403 24.457 146.234 24.2877 146.234 24.1184V23.8646C145.642 24.2877 145.049 24.5416 144.119 24.5416C142.765 24.5416 141.495 23.8646 141.495 21.9182V21.7489C141.495 19.9718 142.68 19.2101 145.219 19.2101H146.065V18.6177C146.065 17.7715 145.642 17.6022 144.88 17.6022C143.949 17.6022 142.849 17.6869 142.341 17.6869H142.257C142.088 17.6869 142.003 17.6022 142.003 17.433V16.1636C142.003 15.9943 142.088 15.9097 142.341 15.8251C142.934 15.6558 143.949 15.4866 144.965 15.4866C147.165 15.4866 148.519 16.4175 148.519 18.6177V24.0338C148.604 24.3723 148.434 24.457 148.265 24.457ZM146.15 20.7334H145.303C144.288 20.7334 143.949 21.0719 143.949 21.8335V22.0028C143.949 22.5952 144.288 22.7644 144.88 22.7644C145.303 22.7644 145.811 22.5952 146.15 22.4259V20.7334Z" fill="white"/>
</g>
<mask id="mask7_943_4466" style="mask-type:luminance" maskUnits="userSpaceOnUse" x="0" y="0" width="232" height="60">
<path d="M231.791 0H0V60H231.791V0Z" fill="white"/>
</mask>
<g mask="url(#mask7_943_4466)">
<path d="M157.659 20.9027H152.835C152.835 21.7489 153.174 22.5952 154.358 22.5952C155.289 22.5952 156.643 22.5106 157.32 22.426H157.405C157.574 22.426 157.659 22.5106 157.659 22.6798V23.8646C157.659 24.1185 157.574 24.2031 157.32 24.2877C156.305 24.5416 155.543 24.6262 154.189 24.6262C152.327 24.6262 150.381 23.6953 150.381 20.7334V19.7179C150.381 17.2637 151.82 15.7405 154.189 15.7405C156.728 15.7405 157.997 17.433 157.997 19.7179V20.5642C157.913 20.7334 157.828 20.9027 157.659 20.9027ZM155.543 19.2948C155.543 18.1946 155.035 17.6023 154.189 17.6023C153.343 17.6023 152.75 18.1946 152.75 19.2948V19.3794L155.543 19.2948Z" fill="white"/>
</g>
<mask id="mask8_943_4466" style="mask-type:luminance" maskUnits="userSpaceOnUse" x="0" y="0" width="232" height="60">
<path d="M231.791 0H0V60H231.791V0Z" fill="white"/>
</mask>
<g mask="url(#mask8_943_4466)">
<path d="M164.259 17.6869H164.175C163.413 17.6869 162.736 17.9408 162.228 18.1947V24.1185C162.228 24.2878 162.059 24.457 161.89 24.457H160.028C159.859 24.457 159.689 24.2878 159.689 24.1185V16.079C159.689 15.9098 159.859 15.7405 160.028 15.7405H161.805C161.974 15.7405 162.144 15.9098 162.144 16.079V16.4175C162.736 15.9944 163.498 15.6559 164.175 15.6559C164.344 15.6559 164.513 15.8251 164.513 15.9944V17.433C164.513 17.5177 164.344 17.6869 164.259 17.6869Z" fill="white"/>
</g>
<mask id="mask9_943_4466" style="mask-type:luminance" maskUnits="userSpaceOnUse" x="0" y="0" width="232" height="60">
<path d="M231.791 0H0V60H231.791V0Z" fill="white"/>
</mask>
<g mask="url(#mask9_943_4466)">
<path d="M169.168 24.6263C166.713 24.6263 165.359 23.103 165.359 20.6488V19.6333C165.359 17.1792 166.713 15.6559 169.168 15.6559C171.622 15.6559 172.976 17.1792 172.976 19.6333V20.6488C172.976 23.103 171.622 24.6263 169.168 24.6263ZM170.522 19.6333C170.522 18.3639 170.014 17.7715 169.168 17.7715C168.321 17.7715 167.814 18.3639 167.814 19.6333V20.6488C167.814 21.9182 168.321 22.5106 169.168 22.5106C170.098 22.5106 170.522 21.8336 170.522 20.6488V19.6333Z" fill="white"/>
</g>
<mask id="mask10_943_4466" style="mask-type:luminance" maskUnits="userSpaceOnUse" x="0" y="0" width="232" height="60">
<path d="M231.791 0H0V60H231.791V0Z" fill="white"/>
</mask>
<g mask="url(#mask10_943_4466)">
<path d="M178.392 24.6263C178.054 24.6263 177.546 24.5416 177.123 24.5416V27.1651C177.123 27.3343 176.954 27.5036 176.784 27.5036H174.922C174.753 27.5036 174.584 27.3343 174.584 27.1651V16.5021C174.584 16.2483 174.669 16.1636 175.007 16.079C175.853 15.8251 177.038 15.6559 178.223 15.6559C180.677 15.6559 182.031 17.0945 182.031 19.5487V20.7335C182.2 23.103 181.016 24.6263 178.392 24.6263ZM179.746 19.5487C179.746 18.4485 179.492 17.6869 178.392 17.6869C177.884 17.6869 177.461 17.6869 177.123 17.7715V22.5106C177.461 22.5952 177.969 22.5952 178.392 22.5952C179.492 22.5952 179.746 21.749 179.746 20.7335V19.5487Z" fill="white"/>
</g>
<mask id="mask11_943_4466" style="mask-type:luminance" maskUnits="userSpaceOnUse" x="0" y="0" width="232" height="60">
<path d="M231.791 0H0V60H231.791V0Z" fill="white"/>
</mask>
<g mask="url(#mask11_943_4466)">
<path d="M191.086 24.457H189.393C189.224 24.457 189.055 24.2878 189.055 24.1185V23.78C188.209 24.3724 187.532 24.5416 186.601 24.5416C184.4 24.5416 183.893 23.0184 183.893 21.072V15.9944C183.893 15.8251 184.062 15.6559 184.231 15.6559H186.093C186.262 15.6559 186.431 15.8251 186.431 15.9944V21.072C186.431 22.0875 186.601 22.5106 187.532 22.5106C187.955 22.5106 188.462 22.2567 188.97 22.0029V16.079C188.97 15.9098 189.139 15.7405 189.309 15.7405H191.17C191.34 15.7405 191.509 15.9098 191.509 16.079V24.2031C191.424 24.3724 191.255 24.457 191.086 24.457Z" fill="white"/>
</g>
<mask id="mask12_943_4466" style="mask-type:luminance" maskUnits="userSpaceOnUse" x="0" y="0" width="232" height="60">
<path d="M231.791 0H0V60H231.791V0Z" fill="white"/>
</mask>
<g mask="url(#mask12_943_4466)">
<path d="M200.479 20.9027H195.656C195.656 21.7489 195.994 22.5952 197.179 22.5952C198.11 22.5952 199.464 22.5106 200.141 22.426H200.225C200.395 22.426 200.564 22.5106 200.564 22.6798V23.8646C200.564 24.1185 200.479 24.2031 200.225 24.2877C199.21 24.5416 198.448 24.6262 197.094 24.6262C195.233 24.6262 193.286 23.6953 193.286 20.7334V19.7179C193.286 17.2637 194.725 15.7405 197.094 15.7405C199.633 15.7405 200.902 17.433 200.902 19.7179V20.5642C200.818 20.7334 200.649 20.9027 200.479 20.9027ZM198.364 19.2948C198.364 18.1946 197.856 17.6023 197.01 17.6023C196.163 17.6023 195.571 18.1946 195.571 19.2948V19.3794L198.364 19.2948Z" fill="white"/>
</g>
<mask id="mask13_943_4466" style="mask-type:luminance" maskUnits="userSpaceOnUse" x="0" y="0" width="232" height="60">
<path d="M231.791 0H0V60H231.791V0Z" fill="white"/>
</mask>
<g mask="url(#mask13_943_4466)">
<path d="M207.081 17.6869H206.996C206.234 17.6869 205.557 17.9408 205.05 18.1947V24.1185C205.05 24.2878 204.88 24.457 204.711 24.457H202.849C202.68 24.457 202.511 24.2878 202.511 24.1185V16.079C202.511 15.9098 202.68 15.7405 202.849 15.7405H204.626C204.796 15.7405 204.965 15.9098 204.965 16.079V16.4175C205.557 15.9944 206.319 15.6559 206.996 15.6559C207.165 15.6559 207.334 15.8251 207.334 15.9944V17.433C207.334 17.5177 207.25 17.6869 207.081 17.6869Z" fill="white"/>
</g>
<mask id="mask14_943_4466" style="mask-type:luminance" maskUnits="userSpaceOnUse" x="0" y="0" width="232" height="60">
<path d="M231.791 0H0V60H231.791V0Z" fill="white"/>
</mask>
<g mask="url(#mask14_943_4466)">
<path d="M213.427 24.5416C213.004 24.6262 212.666 24.6262 212.243 24.6262C210.55 24.6262 209.704 24.2031 209.704 22.0028V17.6022L208.519 17.433C208.35 17.433 208.181 17.2637 208.181 17.0945V16.079C208.181 15.9097 208.35 15.7405 208.519 15.7405H209.704V14.4711C209.704 14.3018 209.873 14.2172 210.042 14.1326L211.904 13.7941H211.989C212.158 13.7941 212.243 13.8787 212.243 14.0479V15.6558H213.512C213.681 15.6558 213.851 15.8251 213.851 15.9943V17.2637C213.851 17.433 213.681 17.6022 213.512 17.6022H212.243V22.0028C212.243 22.5952 212.327 22.6798 212.75 22.6798H213.512C213.681 22.6798 213.851 22.7644 213.851 22.9337V24.1185C213.766 24.3723 213.681 24.457 213.427 24.5416Z" fill="white"/>
</g>
<mask id="mask15_943_4466" style="mask-type:luminance" maskUnits="userSpaceOnUse" x="0" y="0" width="232" height="60">
<path d="M231.791 0H0V60H231.791V0Z" fill="white"/>
</mask>
<g mask="url(#mask15_943_4466)">
<path d="M218.674 24.6263C216.22 24.6263 214.866 23.103 214.866 20.6488V19.6333C214.866 17.1792 216.22 15.6559 218.674 15.6559C221.129 15.6559 222.483 17.1792 222.483 19.6333V20.6488C222.567 23.103 221.213 24.6263 218.674 24.6263ZM220.028 19.6333C220.028 18.3639 219.521 17.7715 218.674 17.7715C217.828 17.7715 217.32 18.3639 217.32 19.6333V20.6488C217.32 21.9182 217.828 22.5106 218.674 22.5106C219.605 22.5106 220.028 21.8336 220.028 20.6488V19.6333Z" fill="white"/>
</g>
<mask id="mask16_943_4466" style="mask-type:luminance" maskUnits="userSpaceOnUse" x="0" y="0" width="232" height="60">
<path d="M231.791 0H0V60H231.791V0Z" fill="white"/>
</mask>
<g mask="url(#mask16_943_4466)">
<path d="M227.137 24.6262C226.291 24.6262 225.106 24.5416 224.344 24.2877C224.175 24.2031 224.006 24.1184 224.006 23.9492V22.6798C224.006 22.5105 224.09 22.4259 224.344 22.4259H224.429C225.275 22.5106 226.545 22.5952 227.052 22.5952C227.814 22.5952 227.983 22.4259 227.983 22.0028C227.983 21.7489 227.814 21.5797 227.476 21.3258L225.529 20.141C224.683 19.6333 224.175 18.8716 224.175 17.8561C224.175 16.3328 225.191 15.4866 227.306 15.4866C228.491 15.4866 229.253 15.6558 230.014 15.8251C230.184 15.9097 230.353 15.9943 230.353 16.1636V17.433C230.353 17.6022 230.268 17.6869 230.099 17.6869H230.014C229.591 17.6022 228.237 17.5176 227.476 17.5176C226.883 17.5176 226.629 17.6022 226.629 17.9407C226.629 18.1946 226.799 18.2792 227.052 18.4485L228.914 19.5486C230.184 20.3103 230.437 21.0719 230.437 21.9182C230.353 23.5261 229.337 24.6262 227.137 24.6262Z" fill="white"/>
</g>
<mask id="mask17_943_4466" style="mask-type:luminance" maskUnits="userSpaceOnUse" x="0" y="0" width="232" height="60">
<path d="M231.791 0H0V60H231.791V0Z" fill="white"/>
</mask>
<g mask="url(#mask17_943_4466)">
<path d="M145.558 43.1593C145.219 43.1593 144.711 43.0747 144.288 43.0747V45.6981C144.288 45.8674 144.119 46.0366 143.95 46.0366H142.172C142.003 46.0366 141.834 45.8674 141.834 45.6981V35.0352C141.834 34.7813 141.919 34.6967 142.257 34.6121C143.103 34.4428 144.288 34.189 145.473 34.189C147.927 34.189 149.281 35.6276 149.281 38.0818V39.2665C149.366 41.6361 148.096 43.1593 145.558 43.1593ZM146.912 38.0818C146.912 36.9816 146.658 36.22 145.558 36.22C145.05 36.22 144.627 36.22 144.288 36.3046V41.0437C144.627 41.1283 145.134 41.1283 145.558 41.1283C146.658 41.1283 146.912 40.2821 146.912 39.2665V38.0818Z" fill="white"/>
</g>
<mask id="mask18_943_4466" style="mask-type:luminance" maskUnits="userSpaceOnUse" x="0" y="0" width="232" height="60">
<path d="M231.791 0H0V60H231.791V0Z" fill="white"/>
</mask>
<g mask="url(#mask18_943_4466)">
<path d="M157.49 43.0748H155.797C155.628 43.0748 155.459 42.9055 155.459 42.7362V42.4824C154.866 42.9055 154.274 43.1594 153.343 43.1594C151.989 43.1594 150.72 42.4824 150.72 40.536V40.3667C150.72 38.5896 151.82 37.8279 154.443 37.8279H155.29V37.2355C155.29 36.3893 154.866 36.22 154.105 36.22C153.174 36.22 152.074 36.3047 151.566 36.3047H151.481C151.312 36.3047 151.227 36.22 151.227 36.0508V34.7814C151.227 34.6121 151.312 34.5275 151.566 34.4429C152.158 34.2736 153.174 34.1044 154.189 34.1044C156.39 34.1044 157.744 34.9506 157.744 37.2355V42.6516C157.828 42.9055 157.659 43.0748 157.49 43.0748ZM155.374 39.2666H154.528C153.512 39.2666 153.174 39.6051 153.174 40.3667V40.536C153.174 41.213 153.512 41.2976 154.105 41.2976C154.528 41.2976 155.036 41.1283 155.374 40.9591V39.2666Z" fill="white"/>
</g>
<mask id="mask19_943_4466" style="mask-type:luminance" maskUnits="userSpaceOnUse" x="0" y="0" width="232" height="60">
<path d="M231.791 0H0V60H231.791V0Z" fill="white"/>
</mask>
<g mask="url(#mask19_943_4466)">
<path d="M164.344 36.22H164.26C163.498 36.22 162.821 36.4739 162.313 36.7278V42.6516C162.313 42.8209 162.144 42.9901 161.975 42.9901H160.113C159.944 42.9901 159.774 42.8209 159.774 42.6516V34.5275C159.774 34.3582 159.944 34.189 160.113 34.189H161.89C162.059 34.189 162.229 34.3582 162.229 34.5275V34.866C162.821 34.4429 163.583 34.1044 164.26 34.1044C164.429 34.1044 164.598 34.2736 164.598 34.4429V35.8815C164.598 36.0508 164.513 36.22 164.344 36.22Z" fill="white"/>
</g>
<mask id="mask20_943_4466" style="mask-type:luminance" maskUnits="userSpaceOnUse" x="0" y="0" width="232" height="60">
<path d="M231.791 0H0V60H231.791V0Z" fill="white"/>
</mask>
<g mask="url(#mask20_943_4466)">
<path d="M172.045 43.0748H170.353C170.184 43.0748 170.014 42.9055 170.014 42.7362V42.4824C169.422 42.9055 168.83 43.1594 167.899 43.1594C166.545 43.1594 165.275 42.4824 165.275 40.536V40.3667C165.275 38.5896 166.376 37.8279 168.999 37.8279H169.845V37.2355C169.845 36.3893 169.422 36.22 168.66 36.22C167.73 36.22 166.629 36.3047 166.122 36.3047H166.037C165.868 36.3047 165.783 36.22 165.783 36.0508V34.7814C165.783 34.6121 165.868 34.5275 166.037 34.4429C166.629 34.2736 167.645 34.1044 168.66 34.1044C170.861 34.1044 172.215 34.9506 172.215 37.2355V42.6516C172.384 42.9055 172.215 43.0748 172.045 43.0748ZM169.93 39.2666H169.084C168.068 39.2666 167.73 39.6051 167.73 40.3667V40.536C167.73 41.213 168.068 41.2976 168.66 41.2976C169.084 41.2976 169.507 41.1283 169.93 40.9591V39.2666Z" fill="white"/>
</g>
<mask id="mask21_943_4466" style="mask-type:luminance" maskUnits="userSpaceOnUse" x="0" y="0" width="232" height="60">
<path d="M231.791 0H0V60H231.791V0Z" fill="white"/>
</mask>
<g mask="url(#mask21_943_4466)">
<path d="M183.216 43.0748C182.792 43.1594 182.454 43.1594 182.031 43.1594C180.338 43.1594 179.492 42.7363 179.492 40.536V36.1355L178.307 35.9662C178.138 35.9662 177.969 35.7969 177.969 35.6277V34.6122C177.969 34.4429 178.138 34.2737 178.307 34.2737H179.492V33.0043C179.492 32.835 179.661 32.7504 179.831 32.6658L181.692 32.3273H181.777C181.946 32.3273 182.031 32.4119 182.031 32.5811V34.189H183.3C183.469 34.189 183.639 34.3583 183.639 34.5276V35.7969C183.639 35.9662 183.469 36.1355 183.3 36.1355H181.946V40.6206C181.946 41.213 182.031 41.2976 182.454 41.2976H183.216C183.385 41.2976 183.554 41.3823 183.554 41.5515V42.7363C183.469 42.9055 183.385 42.9902 183.216 43.0748Z" fill="white"/>
</g>
<mask id="mask22_943_4466" style="mask-type:luminance" maskUnits="userSpaceOnUse" x="0" y="0" width="232" height="60">
<path d="M231.791 0H0V60H231.791V0Z" fill="white"/>
</mask>
<g mask="url(#mask22_943_4466)">
<path d="M187.278 33.3427H185.332C185.162 33.3427 184.993 33.1735 184.993 33.0042V31.5656C184.993 31.3963 185.162 31.2271 185.332 31.2271H187.278C187.447 31.2271 187.617 31.3963 187.617 31.5656V33.0042C187.617 33.1735 187.447 33.3427 187.278 33.3427ZM187.193 43.0747H185.332C185.162 43.0747 184.993 42.9055 184.993 42.7362V34.6121C184.993 34.4428 185.162 34.2736 185.332 34.2736H187.193C187.363 34.2736 187.532 34.4428 187.532 34.6121V42.7362C187.532 42.9055 187.363 43.0747 187.193 43.0747Z" fill="white"/>
</g>
<mask id="mask23_943_4466" style="mask-type:luminance" maskUnits="userSpaceOnUse" x="0" y="0" width="232" height="60">
<path d="M231.791 0H0V60H231.791V0Z" fill="white"/>
</mask>
<g mask="url(#mask23_943_4466)">
<path d="M203.357 49.6755H141.749C141.58 49.6755 141.495 49.8448 141.495 50.014V50.7757C141.495 50.9449 141.664 51.1142 141.749 51.1142H203.357C203.526 51.1142 203.611 50.9449 203.611 50.7757V49.9294C203.695 49.8448 203.526 49.6755 203.357 49.6755Z" fill="white"/>
</g>
</g>
<defs>
<clipPath id="clip0_943_4466">
<rect width="231.791" height="60" fill="white"/>
</clipPath>
</defs>
</svg>
